<?xml version="1.0" standalone="no"?>
<!DOCTYPE svg PUBLIC "-//W3C//DTD SVG 20010904//EN"
 "http://www.w3.org/TR/2001/REC-SVG-20010904/DTD/svg10.dtd">
<svg version="1.0" xmlns="http://www.w3.org/2000/svg"
 width="3710.000000pt" height="3710.000000pt" viewBox="0 0 3710.000000 3710.000000"
 preserveAspectRatio="xMidYMid meet">

<g transform="translate(0.000000,3710.000000) scale(0.100000,-0.100000)"
fill="#000000" stroke="none">
<path d="M14245 27406 c-51 -22 -97 -68 -121 -121 l-24 -50 0 -2632 c0 -1839
3 -2633 11 -2633 5 0 56 15 112 34 133 45 238 71 384 97 149 27 498 37 665 20
242 -25 502 -95 738 -198 69 -30 131 -57 138 -60 9 -4 12 149 12 746 0 648 2
762 16 829 60 289 273 509 569 588 68 18 235 19 5705 19 5428 0 5638 -1 5713
-18 43 -10 117 -38 165 -62 206 -104 346 -277 402 -500 20 -80 20 -87 18
-7510 l-3 -7430 -21 -61 c-91 -264 -283 -446 -545 -521 -62 -17 -273 -18
-5724 -18 -5429 0 -5663 1 -5725 18 -96 27 -218 90 -293 153 -115 94 -198 217
-249 369 l-23 70 -3 4416 -2 4416 105 68 c138 88 270 190 372 288 l81 78 196
-98 196 -98 0 -4161 c0 -2751 3 -4180 10 -4215 14 -75 53 -128 119 -162 l55
-27 5168 0 c4314 0 5174 2 5201 13 47 20 95 64 120 111 l22 41 0 6675 0 6675
-22 40 c-27 51 -68 90 -115 109 -34 14 -556 16 -5208 16 -4315 0 -5176 -2
-5203 -13 -51 -22 -98 -67 -121 -117 -21 -44 -21 -57 -24 -828 l-3 -783 35
-57 c269 -448 392 -1022 331 -1546 -8 -71 -14 -130 -13 -132 2 -1 127 -64 278
-139 151 -76 312 -157 358 -182 l82 -45 -55 -106 c-30 -59 -51 -110 -47 -113
22 -20 324 -170 335 -166 6 3 36 50 65 106 30 55 55 101 58 101 5 0 167 -81
173 -86 3 -3 -19 -54 -49 -114 -30 -60 -52 -111 -49 -114 5 -5 187 -96 192
-96 2 0 11 17 20 38 15 33 17 105 20 617 4 639 6 658 71 919 196 775 819 1420
1624 1680 140 45 250 71 417 99 127 21 160 21 1340 25 1283 4 1358 2 1600 -43
902 -167 1640 -841 1860 -1699 66 -258 70 -306 70 -941 l0 -570 -29 -62 c-34
-74 -113 -154 -183 -185 -73 -33 -201 -36 -275 -8 -76 28 -159 104 -195 178
l-28 57 -6 590 c-6 648 -6 646 -75 863 -39 123 -152 341 -231 447 -268 360
-682 600 -1140 660 -95 13 -292 15 -1211 15 -603 -1 -1156 -5 -1228 -10 -154
-10 -345 -47 -470 -90 -130 -45 -356 -160 -459 -235 -376 -270 -618 -661 -684
-1102 -7 -44 -11 -271 -11 -595 0 -288 -4 -549 -10 -582 -13 -79 -45 -142
-101 -197 l-46 -47 37 -21 c21 -12 40 -21 44 -21 3 0 17 23 31 50 14 28 28 50
30 50 3 0 41 -18 85 -40 l80 -40 -50 -100 c-27 -55 -50 -102 -50 -105 0 -6
416 -215 428 -215 4 0 30 43 57 95 28 52 53 95 58 95 4 0 84 -38 177 -85 l169
-85 -40 -75 c-23 -42 -39 -79 -35 -82 3 -3 1147 13 2543 37 1396 23 2608 40
2693 37 172 -5 231 -17 347 -72 184 -87 315 -218 398 -399 70 -151 65 8 65
-2284 0 -2007 -1 -2071 -19 -2144 -83 -323 -350 -572 -686 -638 -51 -10 -6419
-270 -6611 -270 -243 0 -447 83 -614 250 -89 89 -135 157 -177 260 -55 138
-53 21 -53 2320 0 2092 0 2126 20 2209 11 46 24 89 28 96 5 10 339 -154 1292
-636 722 -366 1305 -654 1330 -660 80 -17 124 1 374 151 127 76 243 151 257
167 28 29 49 65 49 82 0 5 -107 -54 -237 -132 l-238 -142 -72 -3 -72 -4 -373
187 c-205 104 -681 344 -1058 535 -377 191 -1047 530 -1490 755 -443 224 -928
470 -1078 546 -151 77 -278 139 -284 139 -5 0 -51 -39 -101 -86 -244 -230
-564 -420 -894 -530 l-142 -48 -6 -46 c-16 -142 -35 -236 -60 -285 -38 -78
-111 -150 -191 -187 -105 -49 -158 -48 -494 7 -380 63 -381 63 -585 -77 -60
-42 -136 -90 -168 -108 l-58 -33 6 -5691 c5 -3821 10 -5702 17 -5724 13 -45
61 -98 112 -125 l41 -22 8200 0 8200 0 40 22 c51 27 90 68 109 115 14 34 16
1022 16 10069 l0 10031 -47 -36 c-74 -56 -221 -146 -293 -179 -36 -17 -67 -32
-69 -33 -2 -2 -18 -87 -36 -189 -18 -103 -37 -191 -42 -196 -12 -12 -462 -89
-480 -82 -7 3 -53 80 -103 173 l-90 167 -63 7 c-107 12 -251 45 -353 80 l-98
34 -154 -109 c-85 -60 -161 -109 -169 -109 -16 0 -371 249 -393 275 -10 12 -1
51 44 200 l55 186 -46 57 c-68 83 -147 208 -194 304 l-40 85 -186 31 c-102 17
-190 35 -196 41 -6 6 -27 114 -49 242 -29 174 -36 235 -27 245 6 7 84 53 173
101 l162 87 12 101 c13 104 47 249 83 347 12 32 19 65 15 73 -3 9 -54 83 -113
165 l-107 150 -358 0 c-285 0 -358 -3 -352 -12 4 -7 57 -82 117 -166 66 -93
107 -160 105 -170 -7 -26 -408 -583 -425 -589 -8 -3 -138 31 -289 76 l-275 82
-82 -66 c-126 -101 -268 -193 -422 -271 -77 -39 -145 -73 -152 -75 -8 -2 -30
-111 -60 -282 -26 -154 -52 -286 -58 -294 -9 -11 -108 -32 -359 -74 -191 -32
-354 -55 -362 -52 -7 3 -75 119 -151 258 l-137 253 -105 11 c-194 22 -423 76
-589 141 l-74 29 -232 -165 c-127 -90 -240 -164 -252 -164 -12 0 -150 93 -308
206 -222 159 -286 210 -286 227 0 11 33 134 74 272 41 137 76 257 78 266 2 9
-27 55 -64 101 -90 114 -188 263 -244 370 l-45 88 -4227 0 c-3463 -1 -4232 -3
-4257 -14z"/>
<path d="M11789 21458 l-23 -31 -14 21 c-22 33 -46 27 -86 -22 -79 -97 -230
-167 -471 -218 -266 -57 -456 -132 -574 -227 -129 -103 -188 -208 -203 -361
-3 -20 -8 -24 -28 -21 -76 10 -109 5 -151 -24 -150 -106 -104 -345 109 -564
45 -46 82 -87 82 -89 0 -3 -16 -22 -35 -43 -19 -22 -35 -47 -35 -57 0 -72 149
-170 326 -216 66 -17 210 -21 232 -7 10 6 12 21 7 53 -8 54 -11 59 -56 86
-108 65 -209 221 -209 321 0 47 4 57 34 87 29 29 41 34 80 34 27 0 58 -7 73
-17 33 -22 99 -123 115 -176 14 -46 32 -56 58 -32 27 24 25 40 -11 126 -63
148 -76 245 -38 293 26 33 21 31 288 112 605 184 773 294 812 531 15 93 -1
191 -47 281 -39 77 -63 106 -129 156 -57 44 -77 45 -106 4z"/>
<path d="M12706 20609 c-168 -353 -246 -697 -246 -1088 0 -895 480 -1710 1268
-2155 92 -52 304 -151 345 -161 26 -7 27 -9 27 -81 0 -89 -1 -88 109 -38 l78
35 12 62 c7 34 13 68 14 75 1 8 -34 26 -93 46 -305 106 -560 249 -800 450
-422 352 -724 853 -834 1385 -43 208 -51 287 -51 521 0 242 13 358 62 565 32
136 104 347 149 439 19 38 32 71 29 74 -2 3 -34 -55 -69 -129z"/>
<path d="M13858 20626 c-113 -40 -203 -113 -266 -217 -33 -55 -27 -56 27 -6
111 104 277 149 431 116 l50 -11 0 -419 c0 -344 2 -419 13 -419 28 0 132 41
176 70 112 71 198 205 221 341 40 234 -111 479 -337 549 -94 29 -226 27 -315
-4z"/>
<path d="M10258 18967 c-483 -431 -882 -1119 -1122 -1937 -158 -541 -260
-1128 -310 -1785 -47 -613 -43 -1331 10 -1924 15 -171 15 -173 46 -208 20 -21
20 -23 -8 -230 -24 -184 -28 -248 -32 -548 -14 -1181 134 -3131 399 -5240 86
-689 127 -975 144 -1012 26 -57 60 -67 240 -67 139 -1 165 1 188 17 16 10 32
28 36 40 5 12 4 186 -2 387 -15 525 3 1461 48 2500 27 617 97 1856 123 2170
l7 85 78 -315 c274 -1105 873 -3757 1018 -4510 51 -269 60 -294 110 -327 38
-25 42 -26 162 -20 121 6 267 28 319 49 40 15 87 67 94 102 11 64 -168 1902
-312 3181 -127 1140 -273 2318 -415 3358 l-50 368 26 30 c30 37 31 59 4 175
-29 127 -37 420 -16 604 34 287 110 624 277 1225 150 537 290 1094 290 1148 0
7 -61 24 -153 41 -230 44 -422 90 -649 157 l-66 19 10 38 c28 103 126 269 242
412 112 139 394 415 528 519 15 11 42 1 207 -83 104 -53 193 -96 198 -96 5 0
30 44 57 98 48 98 223 406 256 451 l17 25 -104 42 c-57 23 -148 67 -201 98
l-97 55 -27 68 c-69 170 -246 381 -461 548 -60 47 -112 85 -115 85 -4 0 -24
-37 -45 -83 -54 -118 -43 -111 -123 -83 -98 33 -190 73 -235 102 -22 13 -63
34 -92 45 -85 33 -216 126 -311 221 -49 48 -90 88 -91 88 -2 0 -45 -37 -97
-83z"/>
<path d="M22600 16139 c-110 -10 -193 -34 -305 -89 -225 -111 -388 -309 -447
-543 -29 -117 -22 -318 16 -427 63 -179 179 -321 346 -421 36 -22 80 -54 99
-72 47 -43 81 -120 81 -182 0 -27 -43 -295 -96 -594 -90 -504 -96 -548 -85
-590 17 -65 55 -110 118 -138 l54 -25 285 12 c156 6 297 15 312 21 87 33 152
119 152 203 0 25 -43 286 -96 579 -100 558 -102 570 -65 652 26 59 63 98 144
151 190 125 316 297 368 503 18 71 21 105 17 215 -4 114 -8 142 -35 219 -40
113 -82 182 -166 273 -176 189 -420 278 -697 253z"/>
<path d="M9837 5711 c5 -65 4 -69 -25 -102 l-30 -34 -109 -3 c-103 -4 -111 -3
-137 19 -20 18 -29 40 -38 87 -6 34 -15 59 -19 55 -10 -11 -66 -240 -85 -353
-23 -135 -24 -454 -1 -477 3 -3 97 -10 209 -16 211 -11 574 0 837 25 l123 11
-6 37 c-8 49 -56 165 -101 242 -103 175 -325 387 -563 539 l-61 39 6 -69z"/>
<path d="M11305 5676 c-67 -152 -111 -359 -121 -577 l-6 -126 59 -16 c161 -45
248 -52 698 -51 307 0 505 5 690 18 143 10 262 20 264 22 16 16 -195 247 -315
345 -148 121 -337 233 -516 308 -97 40 -318 115 -323 109 -1 -2 -10 -17 -19
-35 -20 -41 -58 -52 -193 -60 -124 -7 -147 3 -164 72 -6 25 -16 45 -21 45 -5
0 -20 -24 -33 -54z"/>
</g>
</svg>
